<?xml version="1.0" encoding="utf-8"?>
<!-- Generator: Adobe Illustrator 24.0.3, SVG Export Plug-In . SVG Version: 6.00 Build 0)  -->
<svg version="1.1" id="Layer_1" xmlns="http://www.w3.org/2000/svg" xmlns:xlink="http://www.w3.org/1999/xlink" x="0px" y="0px"
	 viewBox="0 0 1024 1024" style="enable-background:new 0 0 1024 1024;" xml:space="preserve">
<style type="text/css">
	.st0{fill:#E42527;}
	.st1{fill:#FFFFFF;}
	.st2{fill:#089949;}
	.st3{fill:none;stroke:#089949;stroke-width:59.999;stroke-linecap:round;stroke-linejoin:round;stroke-miterlimit:10;}
	.st4{fill:none;stroke:#E42527;stroke-width:59.999;stroke-linecap:round;stroke-linejoin:round;stroke-miterlimit:10;}
	.st5{fill:#F9B21D;}
</style>
<g>
	<g>
		<path class="st2" d="M890.55,439.05H685.66c-16.57,0-30-13.43-30-30s13.43-30,30-30h132.47L512,72.93L154.66,430.27
			c-11.72,11.72-30.71,11.72-42.43,0c-11.72-11.72-11.72-30.71,0-42.43L490.79,9.29c11.72-11.72,30.71-11.72,42.43,0l378.55,378.55
			c8.58,8.58,11.15,21.48,6.5,32.69S902.69,439.05,890.55,439.05z"/>
	</g>
	<g>
		<path class="st0" d="M512,1023.5c-7.68,0-15.35-2.93-21.21-8.79L112.23,636.16c-8.58-8.58-11.15-21.48-6.5-32.69
			c4.64-11.21,15.58-18.52,27.72-18.52h205.03c16.57,0,30,13.43,30,30s-13.43,30-30,30H205.87L512,951.07l357.34-357.34
			c11.71-11.71,30.71-11.71,42.43,0c11.72,11.72,11.72,30.71,0,42.43l-378.55,378.55C527.36,1020.57,519.68,1023.5,512,1023.5z"/>
	</g>
	<g>
		<path class="st5" d="M512,817.61c-7.68,0-15.35-2.93-21.21-8.79L112.23,430.27c-11.72-11.72-11.72-30.71,0-42.43
			c11.72-11.72,30.71-11.72,42.43,0L512,745.18l169.56-169.56c11.71-11.71,30.71-11.71,42.43,0c11.72,11.72,11.72,30.71,0,42.43
			L533.21,808.82C527.36,814.68,519.68,817.61,512,817.61z"/>
	</g>
	<g>
		<path class="st5" d="M890.55,644.95c-7.68,0-15.36-2.93-21.21-8.79L512,278.82L342.42,448.4c-11.72,11.72-30.71,11.72-42.43,0
			c-11.72-11.72-11.72-30.71,0-42.43l190.79-190.79c11.72-11.72,30.71-11.72,42.43,0l378.55,378.55c11.72,11.72,11.72,30.71,0,42.43
			C905.91,642.02,898.23,644.95,890.55,644.95z"/>
	</g>
</g>
</svg>
